<svg width="28" height="25" viewBox="0 0 28 25" fill="none" xmlns="http://www.w3.org/2000/svg">
<path d="M14.9994 13.0002V20.0002C14.9994 20.2655 14.8941 20.5198 14.7065 20.7073C14.519 20.8949 14.2646 21.0002 13.9994 21.0002C13.7342 21.0002 13.4799 20.8949 13.2923 20.7073C13.1048 20.5198 12.9994 20.2655 12.9994 20.0002V13.0002C12.9994 12.735 13.1048 12.4807 13.2923 12.2931C13.4799 12.1056 13.7342 12.0002 13.9994 12.0002C14.2646 12.0002 14.519 12.1056 14.7065 12.2931C14.8941 12.4807 14.9994 12.735 14.9994 13.0002ZM27.9819 10.264L26.2494 23.2652C26.1852 23.7457 25.9486 24.1865 25.5837 24.5057C25.2188 24.8248 24.7505 25.0006 24.2657 25.0002H3.73318C3.24841 25.0006 2.78002 24.8248 2.41512 24.5057C2.05023 24.1865 1.81366 23.7457 1.74943 23.2652L0.0156811 10.2652C-0.0221004 9.98261 0.00098934 9.69517 0.0834015 9.4222C0.165814 9.14923 0.305643 8.89703 0.493511 8.68253C0.681379 8.46802 0.912943 8.29617 1.17267 8.1785C1.4324 8.06082 1.71429 8.00004 1.99943 8.00024H6.54568L13.2494 0.341492C13.3433 0.235085 13.4587 0.149865 13.588 0.0914917C13.7173 0.0331187 13.8576 0.00292969 13.9994 0.00292969C14.1413 0.00292969 14.2816 0.0331187 14.4109 0.0914917C14.5402 0.149865 14.6556 0.235085 14.7494 0.341492L21.4532 8.00024H25.9994C26.2842 8.00042 26.5657 8.06143 26.8251 8.17919C27.0844 8.29695 27.3156 8.46874 27.5031 8.68306C27.6907 8.89738 27.8304 9.14929 27.9127 9.42193C27.9951 9.69458 28.0182 9.98167 27.9807 10.264H27.9819ZM9.20318 8.00024H18.7957L13.9994 2.51899L9.20318 8.00024ZM25.9994 10.0002H1.99943L3.73318 23.0002H24.2657L25.9994 10.0002ZM19.6044 12.9002L18.9044 19.9002C18.8906 20.0313 18.9028 20.1638 18.9404 20.2901C18.9779 20.4164 19.0401 20.5341 19.1232 20.6363C19.2064 20.7386 19.309 20.8233 19.425 20.8858C19.5411 20.9482 19.6683 20.9871 19.7994 21.0002C19.8332 21.0021 19.867 21.0021 19.9007 21.0002C20.1484 20.9999 20.3871 20.9077 20.5707 20.7414C20.7543 20.5752 20.8697 20.3467 20.8944 20.1002L21.5944 13.1002C21.621 12.8364 21.5416 12.5727 21.3737 12.3674C21.2059 12.162 20.9633 12.0318 20.6994 12.0052C20.4355 11.9787 20.1719 12.0581 19.9666 12.226C19.7612 12.3938 19.631 12.6364 19.6044 12.9002ZM8.39443 12.9002C8.36791 12.6364 8.23765 12.3938 8.03229 12.226C7.82694 12.0581 7.56332 11.9787 7.29943 12.0052C7.03554 12.0318 6.79299 12.162 6.62515 12.3674C6.4573 12.5727 6.37791 12.8364 6.40443 13.1002L7.10443 20.1002C7.1293 20.3478 7.24555 20.5771 7.43045 20.7435C7.61536 20.91 7.85566 21.0015 8.10443 21.0002C8.13816 21.0021 8.17196 21.0021 8.20568 21.0002C8.33635 20.9871 8.46315 20.9484 8.57884 20.8862C8.69454 20.8241 8.79686 20.7398 8.87997 20.6381C8.96308 20.5364 9.02534 20.4194 9.06321 20.2936C9.10108 20.1679 9.11382 20.0359 9.10068 19.9052L8.39443 12.9002Z" fill="#667185"/>
</svg>
