<svg width="105" height="80" viewBox="0 0 105 80" fill="none" xmlns="http://www.w3.org/2000/svg">
<path d="M103.82 73.8002L55.8204 1.8002C55.4545 1.2557 54.9603 0.80956 54.3814 0.50108C53.8024 0.192599 53.1564 0.03125 52.5004 0.03125C51.8444 0.03125 51.1985 0.192599 50.6195 0.50108C50.0405 0.80956 49.5463 1.2557 49.1804 1.8002L1.18043 73.8002C0.829357 74.4083 0.644531 75.0981 0.644531 75.8002C0.644531 76.5023 0.829357 77.1921 1.18043 77.8002C1.49344 78.4249 1.96466 78.9568 2.54715 79.3428C3.12964 79.7288 3.80309 79.9554 4.50043 80.0002H100.5C101.224 79.9983 101.934 79.8001 102.553 79.4267C103.173 79.0534 103.68 78.5189 104.02 77.8802C104.357 77.2449 104.516 76.5307 104.481 75.8127C104.445 75.0948 104.217 74.3996 103.82 73.8002Z" fill="#ECEDED"/>
<path d="M52.5 56C51.4391 56 50.4217 55.5786 49.6716 54.8284C48.9214 54.0783 48.5 53.0609 48.5 52V28C48.5 26.9391 48.9214 25.9217 49.6716 25.1716C50.4217 24.4214 51.4391 24 52.5 24C53.5609 24 54.5783 24.4214 55.3284 25.1716C56.0786 25.9217 56.5 26.9391 56.5 28V52C56.5 53.0609 56.0786 54.0783 55.3284 54.8284C54.5783 55.5786 53.5609 56 52.5 56Z" fill="#ADB5BD"/>
<path d="M52.5 68C51.4391 68 50.4217 67.5786 49.6716 66.8284C48.9214 66.0783 48.5 65.0609 48.5 64C48.5 62.9391 48.9214 61.9217 49.6716 61.1716C50.4217 60.4214 51.4391 60 52.5 60C53.5609 60 54.5783 60.4214 55.3284 61.1716C56.0786 61.9217 56.5 62.9391 56.5 64C56.5 65.0609 56.0786 66.0783 55.3284 66.8284C54.5783 67.5786 53.5609 68 52.5 68Z" fill="#ADB5BD"/>
</svg>
